<?xml version="1.0" encoding="utf-8"?>
<!-- Generator: Adobe Illustrator 22.1.0, SVG Export Plug-In . SVG Version: 6.00 Build 0)  -->
<svg version="1.1" id="Layer_1" xmlns="http://www.w3.org/2000/svg" xmlns:xlink="http://www.w3.org/1999/xlink" x="0px" y="0px"
	 viewBox="0 0 19.1 19.1" style="enable-background:new 0 0 19.1 19.1;" xml:space="preserve">
<style type="text/css">
	.st0{fill:#003082;}
</style>
<path id="download-arrow" class="st0" d="M13.9,10c0.2-0.2,0.2-0.5,0-0.7c-0.1-0.2-0.4-0.2-0.6-0.1c0,0,0,0-0.1,0.1L10,13V0.6
	c0-0.3-0.1-0.5-0.4-0.5c-0.3,0-0.5,0.1-0.5,0.4c0,0,0,0.1,0,0.1V13L5.8,9.3C5.7,9.1,5.4,9.1,5.3,9.2c0,0,0,0-0.1,0.1
	C5,9.5,5,9.8,5.2,10l4.1,4.7c0.1,0.2,0.4,0.2,0.6,0.1c0,0,0,0,0.1-0.1L13.9,10z M17.2,13.4c0-0.3,0.2-0.5,0.5-0.5c0,0,0,0,0,0
	c0.3,0,0.5,0.3,0.5,0.5v5.1c0,0.3-0.2,0.5-0.5,0.5H1.5c-0.3,0-0.5-0.3-0.5-0.5v-5.1c0-0.3,0.2-0.5,0.5-0.5c0,0,0,0,0,0
	c0.3,0,0.5,0.3,0.5,0.5V18h15.2V13.4z"/>
</svg>
