<svg xmlns="http://www.w3.org/2000/svg" xmlns:xlink="http://www.w3.org/1999/xlink" viewBox="0 0 157.668 29.646">
  <defs>
    <style>
      .cls-1 {
        fill: none;
      }

      .cls-2 {
        clip-path: url(#clip-path);
      }

      .cls-3 {
        fill: #fff;
      }
    </style>
    <clipPath id="clip-path">
      <rect class="cls-1" width="157.668" height="29.646"/>
    </clipPath>
  </defs>
  <g id="Repeat_Grid_1" data-name="Repeat Grid 1" class="cls-2">
    <g id="Group_106" data-name="Group 106" transform="translate(-274 -1650.172)">
      <path id="star_3_" data-name="star (3)" class="cls-3" d="M5.659,28.006a.5.5,0,0,1-.494-.586l1.55-9.034-6.564-6.4a.5.5,0,0,1,.278-.855L9.5,9.816,13.556,1.6a.5.5,0,0,1,.449-.28h0a.5.5,0,0,1,.449.28l4.056,8.219,9.07,1.318a.5.5,0,0,1,.278.855l-6.564,6.4,1.549,9.033a.5.5,0,0,1-.727.528l-8.112-4.265L5.892,27.949A.505.505,0,0,1,5.659,28.006ZM1.579,11.98,7.6,17.852a.5.5,0,0,1,.144.444L6.325,26.588l7.447-3.915a.5.5,0,0,1,.467,0l7.446,3.915L20.264,18.3a.5.5,0,0,1,.144-.444l6.025-5.873-8.325-1.21a.5.5,0,0,1-.378-.274L14.006,2.952,10.282,10.5a.5.5,0,0,1-.378.274Z" transform="translate(274 1648.854)"/>
      <path id="Path_308" data-name="Path 308" class="cls-3" d="M8603.768,7754.792l4.006,7.822,9.617,1.462-6.9,6.4,1.67,9.714-8.389-4.723-8.684,4.723,2.164-9.714-6.941-6.4,9.34-1.462Z" transform="translate(-8315.763 -6103.521)"/>
    </g>
    <g id="Group_106-2" data-name="Group 106" transform="translate(-242 -1650.172)">
      <path id="star_3_2" data-name="star (3)" class="cls-3" d="M5.659,28.006a.5.5,0,0,1-.494-.586l1.55-9.034-6.564-6.4a.5.5,0,0,1,.278-.855L9.5,9.816,13.556,1.6a.5.5,0,0,1,.449-.28h0a.5.5,0,0,1,.449.28l4.056,8.219,9.07,1.318a.5.5,0,0,1,.278.855l-6.564,6.4,1.549,9.033a.5.5,0,0,1-.727.528l-8.112-4.265L5.892,27.949A.505.505,0,0,1,5.659,28.006ZM1.579,11.98,7.6,17.852a.5.5,0,0,1,.144.444L6.325,26.588l7.447-3.915a.5.5,0,0,1,.467,0l7.446,3.915L20.264,18.3a.5.5,0,0,1,.144-.444l6.025-5.873-8.325-1.21a.5.5,0,0,1-.378-.274L14.006,2.952,10.282,10.5a.5.5,0,0,1-.378.274Z" transform="translate(274 1648.854)"/>
      <path id="Path_308-2" data-name="Path 308" class="cls-3" d="M8603.768,7754.792l4.006,7.822,9.617,1.462-6.9,6.4,1.67,9.714-8.389-4.723-8.684,4.723,2.164-9.714-6.941-6.4,9.34-1.462Z" transform="translate(-8315.763 -6103.521)"/>
    </g>
    <g id="Group_106-3" data-name="Group 106" transform="translate(-210 -1650.172)">
      <path id="star_3_3" data-name="star (3)" class="cls-3" d="M5.659,28.006a.5.5,0,0,1-.494-.586l1.55-9.034-6.564-6.4a.5.5,0,0,1,.278-.855L9.5,9.816,13.556,1.6a.5.5,0,0,1,.449-.28h0a.5.5,0,0,1,.449.28l4.056,8.219,9.07,1.318a.5.5,0,0,1,.278.855l-6.564,6.4,1.549,9.033a.5.5,0,0,1-.727.528l-8.112-4.265L5.892,27.949A.505.505,0,0,1,5.659,28.006ZM1.579,11.98,7.6,17.852a.5.5,0,0,1,.144.444L6.325,26.588l7.447-3.915a.5.5,0,0,1,.467,0l7.446,3.915L20.264,18.3a.5.5,0,0,1,.144-.444l6.025-5.873-8.325-1.21a.5.5,0,0,1-.378-.274L14.006,2.952,10.282,10.5a.5.5,0,0,1-.378.274Z" transform="translate(274 1648.854)"/>
      <path id="Path_308-3" data-name="Path 308" class="cls-3" d="M8603.768,7754.792l4.006,7.822,9.617,1.462-6.9,6.4,1.67,9.714-8.389-4.723-8.684,4.723,2.164-9.714-6.941-6.4,9.34-1.462Z" transform="translate(-8315.763 -6103.521)"/>
    </g>
    <g id="Group_106-4" data-name="Group 106" transform="translate(-178 -1650.172)">
      <path id="star_3_4" data-name="star (3)" class="cls-3" d="M5.659,28.006a.5.5,0,0,1-.494-.586l1.55-9.034-6.564-6.4a.5.5,0,0,1,.278-.855L9.5,9.816,13.556,1.6a.5.5,0,0,1,.449-.28h0a.5.5,0,0,1,.449.28l4.056,8.219,9.07,1.318a.5.5,0,0,1,.278.855l-6.564,6.4,1.549,9.033a.5.5,0,0,1-.727.528l-8.112-4.265L5.892,27.949A.505.505,0,0,1,5.659,28.006ZM1.579,11.98,7.6,17.852a.5.5,0,0,1,.144.444L6.325,26.588l7.447-3.915a.5.5,0,0,1,.467,0l7.446,3.915L20.264,18.3a.5.5,0,0,1,.144-.444l6.025-5.873-8.325-1.21a.5.5,0,0,1-.378-.274L14.006,2.952,10.282,10.5a.5.5,0,0,1-.378.274Z" transform="translate(274 1648.854)"/>
      <path id="Path_308-4" data-name="Path 308" class="cls-3" d="M8603.768,7754.792l4.006,7.822,9.617,1.462-6.9,6.4,1.67,9.714-8.389-4.723-8.684,4.723,2.164-9.714-6.941-6.4,9.34-1.462Z" transform="translate(-8315.763 -6103.521)"/>
    </g>
    <g id="Group_106-5" data-name="Group 106" transform="translate(-146 -1650.172)">
      <path id="star_3_5" data-name="star (3)" class="cls-3" d="M5.659,28.006a.5.5,0,0,1-.494-.586l1.55-9.034-6.564-6.4a.5.5,0,0,1,.278-.855L9.5,9.816,13.556,1.6a.5.5,0,0,1,.449-.28h0a.5.5,0,0,1,.449.28l4.056,8.219,9.07,1.318a.5.5,0,0,1,.278.855l-6.564,6.4,1.549,9.033a.5.5,0,0,1-.727.528l-8.112-4.265L5.892,27.949A.505.505,0,0,1,5.659,28.006ZM1.579,11.98,7.6,17.852a.5.5,0,0,1,.144.444L6.325,26.588l7.447-3.915a.5.5,0,0,1,.467,0l7.446,3.915L20.264,18.3a.5.5,0,0,1,.144-.444l6.025-5.873-8.325-1.21a.5.5,0,0,1-.378-.274L14.006,2.952,10.282,10.5a.5.5,0,0,1-.378.274Z" transform="translate(274 1648.854)"/>
      <path id="Path_308-5" data-name="Path 308" class="cls-3" d="M8603.768,7754.792l4.006,7.822,9.617,1.462-6.9,6.4,1.67,9.714-8.389-4.723-8.684,4.723,2.164-9.714-6.941-6.4,9.34-1.462Z" transform="translate(-8315.763 -6103.521)"/>
    </g>
  </g>
</svg>
